<svg style="display:none">
	<symbol id="NoIcon" fill="currentColor" viewBox="0 0 1024 1024" xmlns="http://www.w3.org/2000/svg">
	</symbol>
	<symbol id="Search" fill="currentColor" viewBox="0 0 1024 1024" xmlns="http://www.w3.org/2000/svg">
		<path d="M976.521 976.521c-14.237 14.237-33.224 14.237-42.714 0L762.948 805.662l42.714-42.714 170.859 170.859c14.237 14.237 14.237 33.224 0 42.714zM454.454 867.363c-227.81 0-417.653-185.096-417.653-417.653 0-227.81 185.096-412.909 417.653-412.909s417.653 185.096 417.653 417.653c-4.747 227.81-189.843 412.909-417.653 412.909zm0-768.864c-194.589 0-355.955 161.366-355.955 355.955s161.366 355.955 355.955 355.955c194.589 0 355.955-161.366 355.955-355.955S649.043 98.499 454.454 98.499z"></path>
	</symbol>
	<symbol id="Moeda"  fill="currentColor" viewBox="0 0 1024 1024"
		xmlns="http://www.w3.org/2000/svg"><path d="M410.194 318.942c27.006-24.887 63.631-38.869 101.819-38.869h107.66c20.066 0 36.334 14.992 36.334 33.488s-16.269 33.486-36.334 33.486h-107.66c-18.915 0-37.058 6.926-50.434 19.256-13.373 12.326-20.891 29.048-20.891 46.478 0 17.435 7.516 34.155 20.891 46.482 13.377 12.329 31.519 19.256 50.434 19.256 38.191 0 74.816 13.982 101.822 38.866 27.002 24.885 42.172 58.641 42.172 93.837s-15.169 68.953-42.172 93.842c-27.006 24.885-63.631 38.866-101.822 38.866H404.357c-20.069 0-36.338-14.993-36.338-33.486 0-18.496 16.269-33.491 36.338-33.491h107.656c18.916 0 37.061-6.923 50.434-19.252 13.377-12.326 20.891-29.048 20.891-46.482s-7.513-34.152-20.891-46.482c-13.373-12.326-31.516-19.252-50.434-19.252-38.188 0-74.811-13.982-101.819-38.866-27.002-24.889-42.175-58.641-42.175-93.842 0-35.196 15.173-68.949 42.175-93.837z"></path><path d="M172.601 172.601A479.98 479.98 0 0 1 511.998 32.017a479.965 479.965 0 0 1 339.399 140.584 479.97 479.97 0 0 1 0 678.795 479.977 479.977 0 0 1-678.796 0A479.973 479.973 0 0 1 32.017 512.001a479.971 479.971 0 0 1 140.584-339.4zm339.396-73.61a413.009 413.009 0 0 0-292.038 705.047A413.006 413.006 0 0 0 925.005 512 413.012 413.012 0 0 0 511.997 98.991z"></path><path d="M493.794 176.012c16.455 0 29.792 13.338 29.792 29.792v132.409h-59.585V205.804c0-16.455 13.337-29.792 29.792-29.792zM523.586 685.782v132.409c0 16.455-13.337 29.792-29.792 29.792s-29.792-13.337-29.792-29.792V685.782h59.585z"></path></symbol>
	<symbol id="Carro"  fill="currentColor" viewBox="0 0 1024 1024"
		xmlns="http://www.w3.org/2000/svg"><path d="M768.912 665.367H250.737c-11.515 2.301-20.728 11.515-18.423 23.029 0 9.213 9.213 18.423 18.423 18.423h518.175c11.515-2.301 20.728-11.515 18.423-23.029 0-9.213-9.213-18.423-18.423-18.423zm36.846-147.394c-20.728 0-34.544 16.121-34.544 34.544s16.121 34.544 34.544 34.544c20.728 0 34.544-16.121 34.544-34.544s-16.121-34.544-34.544-34.544zm179.636-112.844c0-18.423-16.121-34.544-34.544-34.544h-46.059c-13.82 0-27.636 4.607-36.849 16.121-16.121 16.121-18.423 41.456-9.213 59.879l46.059 87.515c6.908 16.121 11.515 32.243 11.515 50.665v138.18c0 34.544-27.636 64.485-64.485 64.485l-345.451 2.301-340.844-2.301c-34.544 0-64.485-29.937-64.485-64.485v-138.18c0-18.423 4.607-34.544 11.515-50.665l73.695-142.787 43.757 23.029c18.423 9.213 36.849 13.82 57.573 13.82h149.695c11.515 0 20.728-9.213 20.728-20.728s-9.213-20.728-20.728-20.728H287.578c-13.82 0-25.335-2.301-36.849-9.213l-43.757-23.029 39.151-73.695c11.515-27.636 34.544-50.665 66.787-55.272 6.908 0 57.573-2.301 112.845-4.607h11.515c11.515-2.301 20.728-11.515 18.423-23.029 0-9.213-9.213-18.423-18.423-18.423h-11.515c-48.364 2.301-92.121 4.607-110.544 4.607h-9.213c-46.059 6.908-85.209 36.849-101.331 80.607l-57.573 110.544H68.793c-18.423 2.301-32.243 20.728-29.937 39.151 2.301 13.82 13.82 25.335 29.937 29.937h46.059l-39.151 69.092c-11.515 23.029-18.423 46.059-18.423 71.393v338.539c0 11.515 9.213 23.029 20.728 23.029h135.879c11.515 0 20.728-11.515 20.728-23.029v-89.815l274.059 2.301 274.059-2.301v89.815c0 11.515 9.213 23.029 20.728 23.029h133.573c11.515 0 20.728-11.515 20.728-23.029V584.769c0-25.335-6.908-48.364-16.121-71.393l-36.849-73.695h46.059c20.728 0 34.544-16.121 34.544-34.544zM193.161 902.575H101.04V815.06l20.728 6.908c13.82 6.908 27.636 9.213 43.757 9.213h27.636v71.393zm725.447 0h-92.121v-69.092h27.636c13.82 0 29.937-2.301 43.757-9.213l20.728-9.213v87.515zM213.889 517.973c-20.728 0-34.544 16.121-34.544 34.544 0 20.728 16.121 34.544 34.544 34.544s34.544-16.121 34.544-34.544-16.121-34.544-34.544-34.544zm472.115-253.329h-52.971c-25.335 0-43.757-18.423-46.059-43.757 2.301-25.335 20.728-43.757 46.059-43.757h101.331c11.515-4.607 18.423-16.121 16.121-27.636-2.301-6.908-9.213-13.82-16.121-16.121h-52.971V94.222c-4.607-11.515-16.121-18.423-29.937-16.121-6.908 2.301-13.82 6.908-16.121 16.121v39.151L610 140.281c-39.151 9.213-69.092 43.757-69.092 85.209 0 48.364 41.456 87.515 89.815 87.515h52.971c23.029-2.301 46.059 13.82 48.364 39.151 2.301 23.029-13.82 46.059-39.151 48.364h-105.94c-11.515-4.607-25.335 2.301-29.937 16.121s2.301 25.335 16.121 29.937c4.607 2.301 9.213 2.301 13.82 0h48.364v43.757c-4.607 11.515 2.301 25.335 16.121 29.937s25.335-2.301 29.937-16.121c2.301-4.607 2.301-9.213 0-13.82v-41.456l25.335-4.607c39.151-9.213 69.092-43.757 69.092-85.209 0-55.272-41.456-94.423-89.815-94.423z"></path></symbol>
	<symbol id="Sale"  fill="currentColor" viewBox="0 0 1024 1024"
		xmlns="http://www.w3.org/2000/svg"><path d="M683.173 348.331c14.034 14.034 14.034 36.789 0 50.824l-19.22 19.218 34.127 34.128c14.034 14.034 14.034 36.789 0 50.824-14.034 14.033-36.786 14.033-50.822 0l-83.559-83.56a35.283 35.283 0 0 1-1.941-2.098 10.696 10.696 0 0 0-8.151-3.763c-1.553 0-3.08.335-4.489.986s-2.66 1.596-3.662 2.777c-.249.29-.498.575-.757.858l-.018.083c-.264 1.094-1.404 5.866-.014 17.992 1.936 16.818 7.403 37.455 13.92 61.709l.397 1.471c6.003 22.335 12.904 47.987 15.501 70.742 2.367 20.739 3.106 53.06-19.254 75.653a85.211 85.211 0 0 1-120.693 1.624l-19.258 19.258c-14.034 14.034-36.789 14.034-50.824 0s-14.034-36.791 0-50.822l19.258-19.262-34.117-34.113c-14.034-14.034-14.034-36.791 0-50.826 14.034-14.033 36.79-14.033 50.824 0l84.037 84.049a13.39 13.39 0 0 0 4.391 3.023c1.651.7 3.429 1.065 5.223 1.065s3.572-.366 5.224-1.065a13.397 13.397 0 0 0 3.734-2.391c.265-1.088 1.429-5.865.04-18.041-1.92-16.819-7.379-37.457-13.898-61.699l-.436-1.624c-5.995-22.29-12.874-47.868-15.48-70.544-2.348-20.432-3.144-52.233 18.376-74.781a82.6 82.6 0 0 1 61.973-27.996 82.564 82.564 0 0 1 34.612 7.603 82.69 82.69 0 0 1 25.004 17.826l19.124-19.126c14.034-14.034 36.791-14.034 50.826 0zM710.51 248.906c0 13.455 5.343 26.361 14.859 35.875s22.42 14.86 35.875 14.86a50.737 50.737 0 0 0 50.734-50.735c0-13.456-5.343-26.361-14.859-35.875s-22.42-14.861-35.875-14.861a50.738 50.738 0 0 0-50.734 50.736z"></path><path d="M884.011 44.799a95.07 95.07 0 0 1 36.361 7.17 94.962 94.962 0 0 1 30.882 20.561c8.846 8.816 15.866 19.286 20.661 30.819s7.274 23.892 7.288 36.379V500.24a94.946 94.946 0 0 1-25.651 64.853L593.97 949.137a95.328 95.328 0 0 1-64.685 29.944 95.331 95.331 0 0 1-67.37-23.297L77.387 620.397a95.027 95.027 0 0 1-23.054-30.102c-5.58-11.487-8.782-23.978-9.418-36.729s1.313-25.503 5.726-37.481a94.798 94.798 0 0 1 19.954-32.241L455.299 74.795a95.22 95.22 0 0 1 69.389-29.991h359.318zm8.976 73.626a23.181 23.181 0 0 0-8.874-1.748H524.695a23.457 23.457 0 0 0-9.281 1.912 23.314 23.314 0 0 0-7.741 5.435L122.944 533.102c-2.118 2.247-3.779 4.921-4.846 7.82s-1.539 5.985-1.388 9.07a22.96 22.96 0 0 0 7.857 16.174l384.54 335.397a23.538 23.538 0 0 0 16.57 5.732 23.45 23.45 0 0 0 15.89-7.345l359.519-383.981a23.095 23.095 0 0 0 6.243-15.75V139.822a23.173 23.173 0 0 0-6.816-16.384 23.2 23.2 0 0 0-7.528-5.012z"></path></symbol>
	<symbol id="Share" fill="currentColor" viewBox="0 0 1024 1024"
		xmlns="http://www.w3.org/2000/svg">
		<path d="M746.667 686.933c-29.867 0-55.467 12.8-76.8 34.133l-281.6-179.2c0-8.533 4.267-21.333 4.267-29.867s0-21.333-4.267-29.867L665.6 307.199c25.6 21.333 51.2 34.133 81.067 34.133 64 0 119.467-55.467 119.467-128s-51.2-128-119.467-128c-64 0-119.467 55.467-119.467 128 0 8.533 0 21.333 4.267 29.867L354.134 418.132c-21.333-21.333-46.933-34.133-76.8-34.133-64 0-119.467 55.467-119.467 128s51.2 128 119.467 128c29.867 0 59.733-12.8 81.067-34.133l281.6 179.2c0 8.533-4.267 17.067-4.267 29.867 0 68.267 51.2 123.733 115.2 123.733s115.2-55.467 115.2-123.733-55.467-128-119.467-128z"></path>
	</symbol>
	<symbol id="Pin" fill="currentColor" viewBox="0 0 1024 1024"
		xmlns="http://www.w3.org/2000/svg">
		<path d="M512 80c179.712 0 325.374 145.62 325.374 325.374 0 165.785-277.007 487.298-319.835 536.035-1.334 1.587-3.318 2.591-5.539 2.591s-4.205-1.004-5.528-2.578l-.011-.013c-42.845-48.729-319.835-370.251-319.835-536.035C186.626 225.621 332.288 80 512 80zm0 162.545c-59.899 0-108.459 48.56-108.459 108.459S452.101 459.463 512 459.463c59.9 0 108.459-48.56 108.459-108.459v-.011.001c-.024-59.889-48.568-108.429-108.457-108.448H512z"></path>
	</symbol>
	<symbol id="Check" fill="currentColor" viewBox="0 0 1024 1024"
		xmlns="http://www.w3.org/2000/svg">
		<path d="M945.137 126.074c21.764 17.205 25.47 48.804 8.258 70.58l-525.187 664.47a120.548 120.548 0 0 1-43.694 35.415 120.48 120.48 0 0 1-110.294-3.297 120.424 120.424 0 0 1-41.42-37.845L68.958 622.88c-15.984-22.682-10.554-54.031 12.137-70.016s54.031-10.554 70.016 12.137l164.816 233.93a20.124 20.124 0 0 0 6.945 6.388c2.795 1.544 5.906 2.405 9.098 2.5s6.351-.574 9.227-1.953a20.038 20.038 0 0 0 7.315-5.953l.592-.765 525.453-664.806c17.203-21.767 48.804-25.473 70.581-8.26z"></path>
	</symbol>
	<symbol id="BuyCar" fill="currentColor" viewBox="0 0 1024 1024"
		xmlns="http://www.w3.org/2000/svg">
		<path d="M768.912 665.367H250.737c-11.515 2.301-20.728 11.515-18.423 23.029 0 9.213 9.213 18.423 18.423 18.423h518.175c11.515-2.301 20.728-11.515 18.423-23.029 0-9.213-9.213-18.423-18.423-18.423zm36.846-147.394c-20.728 0-34.544 16.121-34.544 34.544s16.121 34.544 34.544 34.544c20.728 0 34.544-16.121 34.544-34.544s-16.121-34.544-34.544-34.544zm179.636-112.844c0-18.423-16.121-34.544-34.544-34.544h-46.059c-13.82 0-27.636 4.607-36.849 16.121-16.121 16.121-18.423 41.456-9.213 59.879l46.059 87.515c6.908 16.121 11.515 32.243 11.515 50.665v138.18c0 34.544-27.636 64.485-64.485 64.485l-345.451 2.301-340.844-2.301c-34.544 0-64.485-29.937-64.485-64.485v-138.18c0-18.423 4.607-34.544 11.515-50.665l73.695-142.787 43.757 23.029c18.423 9.213 36.849 13.82 57.573 13.82h149.695c11.515 0 20.728-9.213 20.728-20.728s-9.213-20.728-20.728-20.728H287.578c-13.82 0-25.335-2.301-36.849-9.213l-43.757-23.029 39.151-73.695c11.515-27.636 34.544-50.665 66.787-55.272 6.908 0 57.573-2.301 112.845-4.607h11.515c11.515-2.301 20.728-11.515 18.423-23.029 0-9.213-9.213-18.423-18.423-18.423h-11.515c-48.364 2.301-92.121 4.607-110.544 4.607h-9.213c-46.059 6.908-85.209 36.849-101.331 80.607l-57.573 110.544H68.793c-18.423 2.301-32.243 20.728-29.937 39.151 2.301 13.82 13.82 25.335 29.937 29.937h46.059l-39.151 69.092c-11.515 23.029-18.423 46.059-18.423 71.393v338.539c0 11.515 9.213 23.029 20.728 23.029h135.879c11.515 0 20.728-11.515 20.728-23.029v-89.815l274.059 2.301 274.059-2.301v89.815c0 11.515 9.213 23.029 20.728 23.029h133.573c11.515 0 20.728-11.515 20.728-23.029V584.769c0-25.335-6.908-48.364-16.121-71.393l-36.849-73.695h46.059c20.728 0 34.544-16.121 34.544-34.544zM193.161 902.575H101.04V815.06l20.728 6.908c13.82 6.908 27.636 9.213 43.757 9.213h27.636v71.393zm725.447 0h-92.121v-69.092h27.636c13.82 0 29.937-2.301 43.757-9.213l20.728-9.213v87.515zM213.889 517.973c-20.728 0-34.544 16.121-34.544 34.544 0 20.728 16.121 34.544 34.544 34.544s34.544-16.121 34.544-34.544-16.121-34.544-34.544-34.544zm472.115-253.329h-52.971c-25.335 0-43.757-18.423-46.059-43.757 2.301-25.335 20.728-43.757 46.059-43.757h101.331c11.515-4.607 18.423-16.121 16.121-27.636-2.301-6.908-9.213-13.82-16.121-16.121h-52.971V94.222c-4.607-11.515-16.121-18.423-29.937-16.121-6.908 2.301-13.82 6.908-16.121 16.121v39.151L610 140.281c-39.151 9.213-69.092 43.757-69.092 85.209 0 48.364 41.456 87.515 89.815 87.515h52.971c23.029-2.301 46.059 13.82 48.364 39.151 2.301 23.029-13.82 46.059-39.151 48.364h-105.94c-11.515-4.607-25.335 2.301-29.937 16.121s2.301 25.335 16.121 29.937c4.607 2.301 9.213 2.301 13.82 0h48.364v43.757c-4.607 11.515 2.301 25.335 16.121 29.937s25.335-2.301 29.937-16.121c2.301-4.607 2.301-9.213 0-13.82v-41.456l25.335-4.607c39.151-9.213 69.092-43.757 69.092-85.209 0-55.272-41.456-94.423-89.815-94.423z"></path>
	</symbol>
	<symbol id="SellCar" fill="currentColor" viewBox="0 0 1024 1024"
		xmlns="http://www.w3.org/2000/svg">
		<path d="M683.173 348.331c14.034 14.034 14.034 36.789 0 50.824l-19.22 19.218 34.127 34.128c14.034 14.034 14.034 36.789 0 50.824-14.034 14.033-36.786 14.033-50.822 0l-83.559-83.56a35.283 35.283 0 0 1-1.941-2.098 10.696 10.696 0 0 0-8.151-3.763c-1.553 0-3.08.335-4.489.986s-2.66 1.596-3.662 2.777c-.249.29-.498.575-.757.858l-.018.083c-.264 1.094-1.404 5.866-.014 17.992 1.936 16.818 7.403 37.455 13.92 61.709l.397 1.471c6.003 22.335 12.904 47.987 15.501 70.742 2.367 20.739 3.106 53.06-19.254 75.653a85.211 85.211 0 0 1-120.693 1.624l-19.258 19.258c-14.034 14.034-36.789 14.034-50.824 0s-14.034-36.791 0-50.822l19.258-19.262-34.117-34.113c-14.034-14.034-14.034-36.791 0-50.826 14.034-14.033 36.79-14.033 50.824 0l84.037 84.049a13.39 13.39 0 0 0 4.391 3.023c1.651.7 3.429 1.065 5.223 1.065s3.572-.366 5.224-1.065a13.397 13.397 0 0 0 3.734-2.391c.265-1.088 1.429-5.865.04-18.041-1.92-16.819-7.379-37.457-13.898-61.699l-.436-1.624c-5.995-22.29-12.874-47.868-15.48-70.544-2.348-20.432-3.144-52.233 18.376-74.781a82.6 82.6 0 0 1 61.973-27.996 82.564 82.564 0 0 1 34.612 7.603 82.69 82.69 0 0 1 25.004 17.826l19.124-19.126c14.034-14.034 36.791-14.034 50.826 0zM710.51 248.906c0 13.455 5.343 26.361 14.859 35.875s22.42 14.86 35.875 14.86a50.737 50.737 0 0 0 50.734-50.735c0-13.456-5.343-26.361-14.859-35.875s-22.42-14.861-35.875-14.861a50.738 50.738 0 0 0-50.734 50.736z"></path>
		<path d="M884.011 44.799a95.07 95.07 0 0 1 36.361 7.17 94.962 94.962 0 0 1 30.882 20.561c8.846 8.816 15.866 19.286 20.661 30.819s7.274 23.892 7.288 36.379V500.24a94.946 94.946 0 0 1-25.651 64.853L593.97 949.137a95.328 95.328 0 0 1-64.685 29.944 95.331 95.331 0 0 1-67.37-23.297L77.387 620.397a95.027 95.027 0 0 1-23.054-30.102c-5.58-11.487-8.782-23.978-9.418-36.729s1.313-25.503 5.726-37.481a94.798 94.798 0 0 1 19.954-32.241L455.299 74.795a95.22 95.22 0 0 1 69.389-29.991h359.318zm8.976 73.626a23.181 23.181 0 0 0-8.874-1.748H524.695a23.457 23.457 0 0 0-9.281 1.912 23.314 23.314 0 0 0-7.741 5.435L122.944 533.102c-2.118 2.247-3.779 4.921-4.846 7.82s-1.539 5.985-1.388 9.07a22.96 22.96 0 0 0 7.857 16.174l384.54 335.397a23.538 23.538 0 0 0 16.57 5.732 23.45 23.45 0 0 0 15.89-7.345l359.519-383.981a23.095 23.095 0 0 0 6.243-15.75V139.822a23.173 23.173 0 0 0-6.816-16.384 23.2 23.2 0 0 0-7.528-5.012z"></path>
	</symbol>
	<symbol id="Logo" viewBox="0 0 7774 2048" fill="currentColor"
		xmlns="http://www.w3.org/2000/svg">
		<path d="M7296.82.052L6752.798 1024l544.022 1023.948h477.424L7239.034 1024 7774.244.052zm-1130.746 0v1705.534L5275.298.052 4205.476 2047.954h470.514l599.916-1147.71 254.406 487.47h-254.406l-178.412 341.108h611.236l166.464 319.132h726.816V.052h-435.96zm-1767.734 0l-599.916 1147.71L3199.138.052h-470.514l1069.822 2047.902L4868.268.052H4398.39zm-2076.172 0l-892.04 1707.424L1072.7 1024 1607.91.052h-477.424L586.464 1024l544.022 1023.948h593.006l166.464-319.132h611.236l-178.412-341.108h-254.406l254.406-487.47 598.678 1147.71h470.514L2322.15.046zM-.244 2047.952h435.33V.05H-.244z"></path>
	</symbol>
	<symbol id="ChevronLeft"
		xmlns="http://www.w3.org/2000/svg" fill="none" viewBox="0 0 24 24" stroke="currentColor">
		<path stroke-linecap="round" stroke-linejoin="round" d="M15.75 19.5L8.25 12l7.5-7.5" />
	</symbol>
	<symbol id="ChevronRight"
		xmlns="http://www.w3.org/2000/svg" fill="none" viewBox="0 0 24 24" stroke="currentColor">
		<path stroke-linecap="round" stroke-linejoin="round" d="M8.25 4.5l7.5 7.5-7.5 7.5" />
	</symbol>
	<symbol id="ChevronUp"
		xmlns="http://www.w3.org/2000/svg" fill="none" viewBox="0 0 24 24" stroke="currentColor">
		<path stroke-linecap="round" stroke-linejoin="round" d="M4.5 15.75l7.5-7.5 7.5 7.5" />
	</symbol>
	<symbol id="ChevronDown"
		xmlns="http://www.w3.org/2000/svg" fill="none" viewBox="0 0 24 24" stroke="currentColor">
		<path stroke-linecap="round" stroke-width="2.5" stroke-linejoin="round" d="M19.5 8.25l-7.5 7.5-7.5-7.5" />
	</symbol>
	<symbol id="User" viewBox="0 0 512 512" fill="currentColor"
		xmlns="http://www.w3.org/2000/svg">
		<path d="M406.5 399.6C387.4 352.9 341.5 320 288 320H224c-53.5 0-99.4 32.9-118.5 79.6C69.9 362.2 48 311.7 48 256C48 141.1 141.1 48 256 48s208 93.1 208 208c0 55.7-21.9 106.2-57.5 143.6zm-40.1 32.7C334.4 452.4 296.6 464 256 464s-78.4-11.6-110.5-31.7c7.3-36.7 39.7-64.3 78.5-64.3h64c38.8 0 71.2 27.6 78.5 64.3zM256 512A256 256 0 1 0 256 0a256 256 0 1 0 0 512zm0-272a40 40 0 1 1 0-80 40 40 0 1 1 0 80zm-88-40a88 88 0 1 0 176 0 88 88 0 1 0 -176 0z"/>
	</symbol>
	<symbol id="Bars3"
		xmlns="http://www.w3.org/2000/svg" viewBox="0 0 20 20" stroke="currentColor" fill="none">
		<path fill-rule="evenodd" clip-rule="evenodd" d="M2.5 5.00033C2.5 4.54009 2.8731 4.16699 3.33333 4.16699H16.6667C17.1269 4.16699 17.5 4.54009 17.5 5.00033C17.5 5.46056 17.1269 5.83366 16.6667 5.83366H3.33333C2.8731 5.83366 2.5 5.46056 2.5 5.00033ZM2.5 10.0003C2.5 9.54009 2.8731 9.16699 3.33333 9.16699H16.6667C17.1269 9.16699 17.5 9.54009 17.5 10.0003C17.5 10.4606 17.1269 10.8337 16.6667 10.8337H3.33333C2.8731 10.8337 2.5 10.4606 2.5 10.0003ZM2.5 15.0003C2.5 14.5401 2.8731 14.167 3.33333 14.167H16.6667C17.1269 14.167 17.5 14.5401 17.5 15.0003C17.5 15.4606 17.1269 15.8337 16.6667 15.8337H3.33333C2.8731 15.8337 2.5 15.4606 2.5 15.0003Z" fill="currentColor"/>
	</symbol>
	<symbol id="XMark"
		xmlns="http://www.w3.org/2000/svg" fill="none" viewBox="0 0 24 24" stroke="currentColor">
		<path stroke-linecap="round" stroke-linejoin="round" d="M6 18L18 6M6 6l12 12" />
	</symbol>
	<symbol id="Facebook"
		xmlns="http://www.w3.org/2000/svg" fill="currentColor" viewBox="0 0 320 512">
		<path d="M279.14 288l14.22-92.66h-88.91v-60.13c0-25.35 12.42-50.06 52.24-50.06h40.42V6.26S260.43 0 225.36 0c-73.22 0-121.08 44.38-121.08 124.72v70.62H22.89V288h81.39v224h100.17V288z"/>
	</symbol>
	<symbol id="Instagram"
		xmlns="http://www.w3.org/2000/svg" fill="currentColor" viewBox="0 0 448 512">
		<path d="M224.1 141c-63.6 0-114.9 51.3-114.9 114.9s51.3 114.9 114.9 114.9S339 319.5 339 255.9 287.7 141 224.1 141zm0 189.6c-41.1 0-74.7-33.5-74.7-74.7s33.5-74.7 74.7-74.7 74.7 33.5 74.7 74.7-33.6 74.7-74.7 74.7zm146.4-194.3c0 14.9-12 26.8-26.8 26.8-14.9 0-26.8-12-26.8-26.8s12-26.8 26.8-26.8 26.8 12 26.8 26.8zm76.1 27.2c-1.7-35.9-9.9-67.7-36.2-93.9-26.2-26.2-58-34.4-93.9-36.2-37-2.1-147.9-2.1-184.9 0-35.8 1.7-67.6 9.9-93.9 36.1s-34.4 58-36.2 93.9c-2.1 37-2.1 147.9 0 184.9 1.7 35.9 9.9 67.7 36.2 93.9s58 34.4 93.9 36.2c37 2.1 147.9 2.1 184.9 0 35.9-1.7 67.7-9.9 93.9-36.2 26.2-26.2 34.4-58 36.2-93.9 2.1-37 2.1-147.8 0-184.8zM398.8 388c-7.8 19.6-22.9 34.7-42.6 42.6-29.5 11.7-99.5 9-132.1 9s-102.7 2.6-132.1-9c-19.6-7.8-34.7-22.9-42.6-42.6-11.7-29.5-9-99.5-9-132.1s-2.6-102.7 9-132.1c7.8-19.6 22.9-34.7 42.6-42.6 29.5-11.7 99.5-9 132.1-9s102.7-2.6 132.1 9c19.6 7.8 34.7 22.9 42.6 42.6 11.7 29.5 9 99.5 9 132.1s2.7 102.7-9 132.1z"/>
	</symbol>
	<symbol id="Youtube"
		xmlns="http://www.w3.org/2000/svg" fill="currentColor" viewBox="0 0 1024 1024">
		<path d="M922.529 403.32c0-98.718-80.028-178.746-178.746-178.746H280.221c-98.718 0-178.746 80.028-178.746 178.746v217.36c0 98.718 80.028 178.746 178.746 178.746h463.562c98.718 0 178.746-80.028 178.746-178.746zM629.991 523.015L445.11 624.313c-7.947 4.314-15.217-1.363-15.217-10.449V405.59c0-9.311 7.494-14.988 15.446-10.449l186.24 106.747c3.353 2.174 5.537 5.897 5.537 10.132 0 4.87-2.892 9.066-7.054 10.96l-.075.032z"></path>
	</symbol>
	<symbol id="Twitter"
		xmlns="http://www.w3.org/2000/svg" fill="currentColor" viewBox="0 0 1024 1024">
		<path d="M664.019 178.096c-.49.316-1.088.505-1.734.505s-1.239-.188-1.744-.511l.015.006z"></path>
		<path d="M921.268 254.303c-24.053 10.367-52.034 18.431-81.213 22.853l-1.915.238c13.395-2.311 33.022-26.558 41.106-36.485 11.827-14.136 21.324-30.705 27.608-48.779l.335-1.102c.488-.593.784-1.359.784-2.192s-.296-1.599-.787-2.202l.004.005a4.863 4.863 0 0 0-4.415.01l.026-.015c-28.449 15.458-61.429 28.434-96.074 37.228l-2.991.642a6.405 6.405 0 0 1-1.896.283 6.456 6.456 0 0 1-4.795-2.126l-.004-.004a79.003 79.003 0 0 0-8.668-8.686l-.106-.088c-13.653-11.856-29.452-21.727-46.656-28.903l-1.145-.424c-18.686-7.801-40.395-12.337-63.169-12.337-3.694 0-7.362.121-10.995.356l.494-.025c-25.627 1.947-49.198 9.068-70.225 20.322l.949-.464c-22.235 11.832-40.964 27.315-56.086 45.855l-.258.325c-15.285 18.844-26.859 41.366-33.216 65.981l-.269 1.215c-2.824 12.102-4.441 25.995-4.441 40.268 0 10.898.942 21.578 2.756 31.96l-.162-1.105c0 3.926 0 4.616-3.463 3.926-135.782-20.09-248.475-69.276-339.919-172.962-4.158-4.616-6.237-4.616-9.469 0-39.948 60.038-20.553 156.336 29.327 203.905 6.695 6.237 13.627 12.469 21.016 18.243-24.211-1.742-46.53-8.288-66.527-18.689l.942.447c-4.158-2.542-6.005-1.153-6.463 3.232a116.031 116.031 0 0 0 1.232 20.262l-.079-.634c8.702 63.116 50.072 114.85 106.222 138.131l1.16.425c5.878 3.167 12.76 6.069 19.933 8.311l.852.231c-11.369 2.315-24.443 3.638-37.823 3.638-9.383 0-18.61-.653-27.648-1.911l1.043.121c-4.616 0-6.463 1.616-4.616 6.005 28.174 77.128 89.366 100.218 135.088 113.382 6.237 0 12.469 0 18.474 2.311h-1.153c-15.011 23.09-67.66 40.412-92.371 48.954-33.04 12.231-71.202 19.306-111.018 19.306-10.262 0-20.415-.47-30.444-1.388l1.289.093h-11.084c-2.078 0 0 3 2.079 5.079 9.469 6.237 19.395 11.779 29.327 17.321 26.775 14.575 57.894 27.328 90.48 36.611l3.275.8c168.341 46.185 358.162 12.237 484.939-113.382 99.297-98.603 134.167-234.848 134.167-371.094 0-5.311 6.237-8.311 10.158-11.084 25.208-19.873 46.863-42.7 64.9-68.257l.681-1.018a20.165 20.165 0 0 0 4.157-13.205l.001.041c0-2.079.232-1.384-3.232.232z"></path>
	</symbol>
	<symbol id="Linkedin"
		xmlns="http://www.w3.org/2000/svg" fill="currentColor" viewBox="0 0 448 512">
		<path d="M100.28 448H7.4V148.9h92.88zM53.79 108.1C24.09 108.1 0 83.5 0 53.8a53.79 53.79 0 0 1 107.58 0c0 29.7-24.1 54.3-53.79 54.3zM447.9 448h-92.68V302.4c0-34.7-.7-79.2-48.29-79.2-48.29 0-55.69 37.7-55.69 76.7V448h-92.78V148.9h89.08v40.8h1.3c12.4-23.5 42.69-48.3 87.88-48.3 94 0 111.28 61.9 111.28 142.3V448z"/>
	</symbol>
	<symbol id="TikTok"
		xmlns="http://www.w3.org/2000/svg" fill="currentColor" viewBox="0 0 1024 1024">
		<path d="M842.342 440.528c-6.303.581-12.647.912-18.992.912-69.544 0-134.36-34.005-172.512-90.403v307.908c0 125.652-105.04 227.581-234.633 227.581s-234.673-101.89-234.673-227.581c0-125.693 105.082-227.581 234.673-227.581 4.893 0 9.705.415 14.514.705v112.174c-4.809-.581-9.537-1.409-14.514-1.409-66.144 0-119.762 52.003-119.762 116.113 0 64.153 53.62 116.155 119.762 116.155s124.573-50.552 124.573-114.703l1.162-522.926h110.64c10.409 96.208 90.403 171.35 189.887 178.399v124.655z"></path>
	</symbol>
	<symbol id="Pinterest"
		xmlns="http://www.w3.org/2000/svg" fill="currentColor" viewBox="0 0 1024 1024">
		<path d="M378.068 898.66c18.1-28.621 37.889-65.386 47.977-102.104 5.846-21.218 33.516-130.986 33.516-130.986 16.584 31.61 64.953 59.408 116.437 59.408 153.199 0 257.168-139.689 257.168-326.623 0-141.378-119.771-273.014-301.723-273.014-226.466 0-340.607 162.335-340.607 297.698 0 81.97 31.004 154.888 97.602 182.084 10.913 4.461 20.7.129 23.814-11.953 2.207-8.358 7.447-29.444 9.742-38.235 3.206-11.953 1.991-16.15-6.841-26.543-19.183-22.69-31.437-51.961-31.437-93.489 0-120.377 90.067-228.199 234.651-228.199 127.956 0 198.322 78.158 198.322 182.602 0 137.394-60.84 253.401-151.12 253.401-49.883 0-87.166-41.267-75.213-91.8 14.289-60.363 42.09-125.573 42.09-169.136 0-38.972-20.957-71.534-64.303-71.534-51.01 0-91.929 52.74-91.929 123.366 0 44.947 15.243 75.389 15.243 75.389l-61.314 259.68c-8.53 36.2-9.657 76.168-8.314 109.467z"></path>
	</symbol>
	<symbol id="instagramIcon"
		xmlns="http://www.w3.org/2000/svg" fill="#fff" viewBox="0 0 1024 1024">
		<path d="M752.064 316.859c0 24.009-19.463 43.472-43.472 43.472s-43.472-19.463-43.472-43.472 19.463-43.472 43.472-43.472 43.472 19.463 43.472 43.472zM514.995 329.224c-100.945 0-182.776 81.832-182.776 182.776s81.832 182.776 182.776 182.776c100.945 0 182.776-81.832 182.776-182.776-.11-100.901-81.877-182.668-182.767-182.776h-.009zm0 299.86c-64.665 0-117.084-52.421-117.084-117.084s52.421-117.084 117.084-117.084c64.665 0 117.084 52.421 117.084 117.084-.11 64.621-52.466 116.976-117.075 117.084h-.01z"></path><path d="M660.095 883.156H363.711c-123.094-.111-222.854-99.868-222.965-222.953V363.809c.111-123.094 99.868-222.854 222.953-222.965h296.394c123.178 0 223.047 99.8 223.157 222.953v296.394c-.111 123.162-99.979 222.965-223.157 222.965zM363.713 210.593c-84.574.11-153.105 68.641-153.216 153.204v296.394c.11 84.574 68.641 153.105 153.204 153.216h296.394c84.574-.11 153.105-68.641 153.216-153.204V363.809c-.11-84.574-68.641-153.105-153.204-153.216h-.01z"></path>
	</symbol>
	<symbol id="facebookIcon"
		xmlns="http://www.w3.org/2000/svg" fill="#fff" viewBox="0 0 1024 1024">
		<path d="M415.623 515.04V875.005a9.324 9.324 0 0 0 9.324 9.324l.213-.002h133.556l.204.002a9.324 9.324 0 0 0 9.324-9.324V508.353h96.918a9.322 9.322 0 0 0 9.285-8.476l.002-.037 9.324-110.258a9.324 9.324 0 0 0-9.287-10.135H568.245v-77.424l-.001-.204c0-18.246 14.792-33.038 33.038-33.038h73.979c5.103-.112 9.213-4.218 9.324-9.312v-110.27-.002a9.525 9.525 0 0 0-9.312-9.523H549.802c-74.055.115-134.06 60.117-134.175 134.163v106.419h-66.684a9.324 9.324 0 0 0-9.528 9.322V499.838c.114 5.172 4.333 9.324 9.523 9.324h66.685z"></path>
	</symbol>
	<symbol id="linkedinIcon"
		xmlns="http://www.w3.org/2000/svg" fill="#fff" viewBox="0 0 1024 1024">
		<path d="M554.386 460.193v-1.489c-.249.498-.742.991-.991 1.489z"></path>
		<path d="M554.386 460.193v-1.489c-.249.498-.742.991-.991 1.489z"></path>
		<path d="M319.647 848.618H168.689V394.256h150.958zm-75.603-516.33h-.991c-50.568 0-83.536-34.951-83.536-78.577 0-44.617 33.711-78.577 85.519-78.577s83.536 33.959 84.527 78.577c0 43.626-32.72 78.577-85.519 78.577zm620.439 516.33H713.277V605.449c0-60.977-21.813-102.621-76.594-102.621-41.644 0-66.43 28.009-77.585 55.275-3.965 9.667-4.956 23.302-4.956 36.933v253.827H402.936s1.982-411.727 0-454.362h151.206v64.448c20.08-30.986 55.772-75.106 136.087-75.106 99.399 0 174.011 64.945 174.011 204.499v260.272z"></path>
	</symbol>
	<symbol id="youtubeIcon"
		xmlns="http://www.w3.org/2000/svg" fill="#fff" viewBox="0 0 1024 1024">
		<path d="M922.529 403.32c0-98.718-80.028-178.746-178.746-178.746H280.221c-98.718 0-178.746 80.028-178.746 178.746v217.36c0 98.718 80.028 178.746 178.746 178.746h463.562c98.718 0 178.746-80.028 178.746-178.746zM629.991 523.015L445.11 624.313c-7.947 4.314-15.217-1.363-15.217-10.449V405.59c0-9.311 7.494-14.988 15.446-10.449l186.24 106.747c3.353 2.174 5.537 5.897 5.537 10.132 0 4.87-2.892 9.066-7.054 10.96l-.075.032z"></path>
	</symbol>
	<symbol id="twitterIcon"
		xmlns="http://www.w3.org/2000/svg" fill="#fff" viewBox="0 0 1024 1024">
		<path d="M664.019 178.096c-.49.316-1.088.505-1.734.505s-1.239-.188-1.744-.511l.015.006z"></path>
		<path d="M921.268 254.303c-24.053 10.367-52.034 18.431-81.213 22.853l-1.915.238c13.395-2.311 33.022-26.558 41.106-36.485 11.827-14.136 21.324-30.705 27.608-48.779l.335-1.102c.488-.593.784-1.359.784-2.192s-.296-1.599-.787-2.202l.004.005a4.863 4.863 0 0 0-4.415.01l.026-.015c-28.449 15.458-61.429 28.434-96.074 37.228l-2.991.642a6.405 6.405 0 0 1-1.896.283 6.456 6.456 0 0 1-4.795-2.126l-.004-.004a79.003 79.003 0 0 0-8.668-8.686l-.106-.088c-13.653-11.856-29.452-21.727-46.656-28.903l-1.145-.424c-18.686-7.801-40.395-12.337-63.169-12.337-3.694 0-7.362.121-10.995.356l.494-.025c-25.627 1.947-49.198 9.068-70.225 20.322l.949-.464c-22.235 11.832-40.964 27.315-56.086 45.855l-.258.325c-15.285 18.844-26.859 41.366-33.216 65.981l-.269 1.215c-2.824 12.102-4.441 25.995-4.441 40.268 0 10.898.942 21.578 2.756 31.96l-.162-1.105c0 3.926 0 4.616-3.463 3.926-135.782-20.09-248.475-69.276-339.919-172.962-4.158-4.616-6.237-4.616-9.469 0-39.948 60.038-20.553 156.336 29.327 203.905 6.695 6.237 13.627 12.469 21.016 18.243-24.211-1.742-46.53-8.288-66.527-18.689l.942.447c-4.158-2.542-6.005-1.153-6.463 3.232a116.031 116.031 0 0 0 1.232 20.262l-.079-.634c8.702 63.116 50.072 114.85 106.222 138.131l1.16.425c5.878 3.167 12.76 6.069 19.933 8.311l.852.231c-11.369 2.315-24.443 3.638-37.823 3.638-9.383 0-18.61-.653-27.648-1.911l1.043.121c-4.616 0-6.463 1.616-4.616 6.005 28.174 77.128 89.366 100.218 135.088 113.382 6.237 0 12.469 0 18.474 2.311h-1.153c-15.011 23.09-67.66 40.412-92.371 48.954-33.04 12.231-71.202 19.306-111.018 19.306-10.262 0-20.415-.47-30.444-1.388l1.289.093h-11.084c-2.078 0 0 3 2.079 5.079 9.469 6.237 19.395 11.779 29.327 17.321 26.775 14.575 57.894 27.328 90.48 36.611l3.275.8c168.341 46.185 358.162 12.237 484.939-113.382 99.297-98.603 134.167-234.848 134.167-371.094 0-5.311 6.237-8.311 10.158-11.084 25.208-19.873 46.863-42.7 64.9-68.257l.681-1.018a20.165 20.165 0 0 0 4.157-13.205l.001.041c0-2.079.232-1.384-3.232.232z"></path>
	</symbol>
	<symbol id="Brasil"
		xmlns="http://www.w3.org/2000/svg" fill="none" viewBox="0 0 55.2 38.4">
		<g>
			<path fill="#009B3A" d="M3.03,0h49.13c1.67,0,3.03,1.36,3.03,3.03v32.33c0,1.67-1.36,3.03-3.03,3.03H3.03C1.36,38.4,0,37.04,0,35.37 V3.03C0,1.36,1.36,0,3.03,0L3.03,0z"/>
			<polygon fill="#FEDF00" points="4.24,19.2 27.6,34.11 50.96,19.2 27.6,4.29 4.24,19.2"/>
			<path fill="#002776" d="M27.6,9.35c5.44,0,9.85,4.41,9.85,9.85c0,5.44-4.41,9.85-9.85,9.85c-5.44,0-9.85-4.41-9.85-9.85 C17.75,13.76,22.16,9.35,27.6,9.35L27.6,9.35z"/>
			<path fill="#FFFFFF" d="M18.59,15.22c1.1-0.16,2.23-0.24,3.38-0.24c5.86,0,11.22,2.11,15.38,5.6c-0.07,0.54-0.19,1.06-0.35,1.56 c-3.98-3.58-9.25-5.76-15.03-5.76c-1.33,0-2.64,0.12-3.91,0.34C18.2,16.2,18.38,15.7,18.59,15.22L18.59,15.22z"/>
			<path fill="#009B3A" d="M19.18,16.15c0.14-0.02,0.23-0.16,0.21-0.32c-0.02-0.16-0.15-0.28-0.28-0.26c-0.13,0.02-0.23,0.16-0.21,0.32 C18.92,16.05,19.04,16.16,19.18,16.15L19.18,16.15z M19.2,16.32c0.23-0.03,0.4-0.26,0.36-0.52c-0.03-0.26-0.24-0.44-0.48-0.41 c-0.23,0.03-0.39,0.26-0.36,0.52C18.76,16.16,18.97,16.35,19.2,16.32L19.2,16.32z"/>
			<path fill="#009B3A" d="M20.1,15.7l0.36-0.02c0.07-0.01,0.12-0.06,0.11-0.13c0-0.07-0.06-0.12-0.13-0.11l-0.36,0.03L20.1,15.7 L20.1,15.7z M19.96,16.24l0.17-0.01l-0.02-0.35l0.37-0.03c0.16-0.01,0.29-0.15,0.27-0.31c-0.01-0.16-0.15-0.28-0.31-0.27 l-0.53,0.04L19.96,16.24L19.96,16.24z"/>
			<path fill="#009B3A" d="M20.76,16.18c-0.01-0.13-0.03-0.43-0.23-0.41l-0.26,0.02c0.29-0.02,0.31,0.27,0.33,0.41L20.76,16.18 L20.76,16.18z"/>
			<path fill="#009B3A" d="M21.32,15.98l0.25,0c0.14,0,0.25-0.12,0.25-0.26v-0.08c0-0.14-0.12-0.25-0.26-0.25l-0.26,0.01L21.32,15.98 L21.32,15.98z M21.15,16.16l0.44-0.01c0.22-0.01,0.4-0.19,0.4-0.41l0-0.13c0-0.22-0.19-0.4-0.41-0.4l-0.44,0.01L21.15,16.16 L21.15,16.16z"/>
			<polygon fill="#009B3A" points="22.34,16.15 23.19,16.18 23.19,16.01 22.51,15.98 22.52,15.74 23.05,15.76 23.06,15.6 22.52,15.58 22.53,15.39 23.17,15.42 23.18,15.24 22.38,15.21 22.34,16.15"/>
			<polygon fill="#009B3A" points="23.53,16.2 23.69,16.22 23.75,15.57 23.88,16.23 24.03,16.25 24.27,15.62 24.21,16.26 24.37,16.27 24.46,15.34 24.22,15.32 23.98,15.94 23.85,15.29 23.62,15.27 23.53,16.2"/>
			<polygon fill="#009B3A" points="25.48,16.42 26.17,16.54 26.2,16.38 25.66,16.29 25.7,16.08 26.13,16.15 26.16,16 25.73,15.92 25.75,15.77 26.27,15.86 26.3,15.7 25.62,15.59 25.48,16.42"/>
			<path fill="#009B3A" d="M27.56,16.31l0.35,0.09c0.06,0.01,0.13-0.02,0.15-0.09c0.01-0.06-0.02-0.13-0.09-0.15l-0.35-0.09L27.56,16.31 L27.56,16.31z M27.26,16.77l0.17,0.04l0.09-0.34l0.36,0.09c0.16,0.04,0.32-0.05,0.36-0.21c0.04-0.16-0.05-0.32-0.21-0.36 l-0.52-0.14L27.26,16.77L27.26,16.77z"/>
			<path fill="#009B3A" d="M28.73,16.63l0.34,0.11c0.06,0.02,0.13-0.01,0.15-0.08c0.02-0.06-0.01-0.13-0.08-0.15L28.8,16.4L28.73,16.63 L28.73,16.63z M28.41,17.08l0.17,0.05l0.11-0.33l0.36,0.11c0.15,0.05,0.32-0.04,0.37-0.19c0.05-0.15-0.04-0.32-0.19-0.37 l-0.51-0.16L28.41,17.08L28.41,17.08z"/>
			<path fill="#009B3A" d="M29.17,17.32c0.04-0.13,0.13-0.41-0.06-0.47l-0.24-0.08c0.28,0.09,0.19,0.37,0.15,0.5L29.17,17.32L29.17,17.32 z"/>
			<path fill="#009B3A" d="M30,17.43c0.13,0.05,0.28-0.04,0.33-0.19c0.06-0.15,0-0.32-0.13-0.36c-0.13-0.05-0.28,0.04-0.33,0.19 C29.81,17.22,29.87,17.38,30,17.43L30,17.43z M29.94,17.59c0.22,0.08,0.47-0.05,0.56-0.29c0.09-0.24-0.01-0.51-0.23-0.59 c-0.22-0.08-0.47,0.05-0.56,0.29C29.62,17.25,29.72,17.51,29.94,17.59L29.94,17.59z"/>
			<path fill="#009B3A" d="M31.11,17.88c0.13,0.05,0.28-0.02,0.35-0.17l0,0l0.16,0.07c-0.1,0.24-0.36,0.35-0.57,0.26 c-0.22-0.09-0.31-0.36-0.2-0.6c0.1-0.24,0.36-0.36,0.57-0.26c0.17,0.07,0.26,0.25,0.24,0.44l-0.17-0.08 c-0.01-0.09-0.06-0.17-0.14-0.2c-0.12-0.06-0.28,0.02-0.34,0.17C30.94,17.66,30.98,17.82,31.11,17.88L31.11,17.88z"/>
			<polygon fill="#009B3A" points="31.29,17.64 31.62,17.78 31.56,17.9 31.24,17.76 31.29,17.64"/>
			<polygon fill="#009B3A" points="31.49,17.72 31.62,17.78 31.43,18.21 31.3,18.15 31.49,17.72"/>
			<path fill="#009B3A" d="M32.13,17.96l0.32,0.16c0.06,0.03,0.13,0.01,0.16-0.05c0.03-0.06,0.01-0.13-0.06-0.16l-0.32-0.16L32.13,17.96 L32.13,17.96z M31.74,18.35l0.16,0.08l0.15-0.31l0.33,0.17c0.15,0.07,0.32,0.01,0.4-0.13c0.07-0.15,0.01-0.32-0.13-0.4l-0.48-0.24 L31.74,18.35L31.74,18.35z"/>
			<path fill="#009B3A" d="M32.46,18.71c0.06-0.12,0.19-0.38,0.01-0.47l-0.23-0.11c0.26,0.13,0.13,0.4,0.07,0.51L32.46,18.71L32.46,18.71 z"/>
			<polygon fill="#009B3A" points="32.81,18.89 33.54,19.31 33.63,19.16 33.03,18.82 33.15,18.61 33.62,18.87 33.69,18.73 33.23,18.47 33.32,18.31 33.88,18.62 33.97,18.47 33.27,18.08 32.81,18.89"/>
			<path fill="#009B3A" d="M34.18,19.35c-0.05,0.08,0,0.17,0.11,0.24c0.11,0.07,0.19,0.07,0.22,0.02c0.1-0.16-0.49-0.4-0.31-0.68 c0.16-0.24,0.43-0.05,0.53,0.01c0.1,0.06,0.26,0.23,0.14,0.42l-0.17-0.11c0.05-0.09-0.01-0.17-0.1-0.22 c-0.09-0.05-0.16-0.08-0.21,0c-0.09,0.13,0.49,0.38,0.32,0.66c-0.13,0.21-0.36,0.12-0.52,0.02c-0.13-0.08-0.32-0.28-0.2-0.48 L34.18,19.35L34.18,19.35z"/>
			<path fill="#009B3A" d="M35.18,20.02c-0.05,0.08-0.01,0.17,0.1,0.24c0.11,0.08,0.19,0.08,0.22,0.03c0.11-0.16-0.47-0.42-0.27-0.69 c0.17-0.23,0.43-0.03,0.53,0.04c0.1,0.07,0.25,0.25,0.12,0.43l-0.17-0.12c0.06-0.08,0-0.16-0.08-0.23 c-0.08-0.06-0.15-0.09-0.21-0.01c-0.1,0.12,0.47,0.4,0.28,0.67c-0.14,0.2-0.37,0.1-0.51-0.01c-0.13-0.09-0.31-0.3-0.17-0.49 L35.18,20.02L35.18,20.02z"/>
			<path fill="#009B3A" d="M36.24,20.96c0.11,0.08,0.28,0.05,0.38-0.08c0.1-0.13,0.1-0.3-0.01-0.38c-0.1-0.09-0.28-0.05-0.37,0.08 C36.13,20.7,36.13,20.88,36.24,20.96L36.24,20.96z M36.13,21.1c0.18,0.15,0.46,0.1,0.62-0.1c0.16-0.2,0.14-0.48-0.04-0.63 c-0.18-0.15-0.46-0.1-0.62,0.1C35.93,20.67,35.95,20.95,36.13,21.1L36.13,21.1z"/>
			<polygon fill="#FFFFFF" points="19.56,17.01 19.43,17.41 19.63,17.48 19.56,17.01"/>
			<polygon fill="#FFFFFF" points="19.56,17.01 19.69,17.41 19.49,17.48 19.56,17.01"/>
			<polygon fill="#FFFFFF" points="19.96,17.3 19.54,17.3 19.54,17.51 19.96,17.3"/>
			<polygon fill="#FFFFFF" points="19.96,17.3 19.62,17.55 19.49,17.38 19.96,17.3"/>
			<polygon fill="#FFFFFF" points="19.16,17.3 19.5,17.55 19.62,17.38 19.16,17.3"/>
			<polygon fill="#FFFFFF" points="19.16,17.3 19.58,17.3 19.58,17.51 19.16,17.3"/>
			<polygon fill="#FFFFFF" points="19.81,17.77 19.68,17.37 19.48,17.44 19.81,17.77"/>
			<polygon fill="#FFFFFF" points="19.81,17.77 19.47,17.53 19.59,17.35 19.81,17.77"/>
			<polygon fill="#FFFFFF" points="19.31,17.77 19.65,17.53 19.53,17.35 19.31,17.77"/>
			<polygon fill="#FFFFFF" points="19.31,17.77 19.44,17.37 19.64,17.44 19.31,17.77"/>
			<polygon fill="#FFFFFF" points="20.43,21.15 20.3,21.55 20.5,21.62 20.43,21.15"/>
			<polygon fill="#FFFFFF" points="20.43,21.15 20.56,21.55 20.36,21.62 20.43,21.15"/>
			<polygon fill="#FFFFFF" points="20.83,21.44 20.41,21.44 20.41,21.65 20.83,21.44"/>
			<polygon fill="#FFFFFF" points="20.83,21.44 20.49,21.69 20.37,21.52 20.83,21.44"/>
			<polygon fill="#FFFFFF" points="20.03,21.44 20.37,21.69 20.5,21.52 20.03,21.44"/>
			<polygon fill="#FFFFFF" points="20.03,21.44 20.45,21.44 20.45,21.65 20.03,21.44"/>
			<polygon fill="#FFFFFF" points="20.68,21.91 20.55,21.51 20.35,21.58 20.68,21.91"/>
			<polygon fill="#FFFFFF" points="20.68,21.91 20.34,21.67 20.46,21.49 20.68,21.91"/>
			<polygon fill="#FFFFFF" points="20.18,21.91 20.52,21.67 20.4,21.49 20.18,21.91"/>
			<polygon fill="#FFFFFF" points="20.18,21.91 20.31,21.51 20.51,21.58 20.18,21.91"/>
			<polygon fill="#FFFFFF" points="19.22,22.11 19.12,22.44 19.28,22.49 19.22,22.11"/>
			<polygon fill="#FFFFFF" points="19.22,22.11 19.33,22.44 19.17,22.49 19.22,22.11"/>
			<polygon fill="#FFFFFF" points="19.56,22.35 19.21,22.35 19.21,22.52 19.56,22.35"/>
			<polygon fill="#FFFFFF" points="19.56,22.35 19.27,22.55 19.17,22.41 19.56,22.35"/>
			<polygon fill="#FFFFFF" points="18.89,22.35 19.18,22.55 19.28,22.41 18.89,22.35"/>
			<polygon fill="#FFFFFF" points="18.89,22.35 19.24,22.35 19.24,22.52 18.89,22.35"/>
			<polygon fill="#FFFFFF" points="19.43,22.74 19.32,22.4 19.15,22.46 19.43,22.74"/>
			<polygon fill="#FFFFFF" points="19.43,22.74 19.15,22.53 19.25,22.39 19.43,22.74"/>
			<polygon fill="#FFFFFF" points="19.02,22.74 19.3,22.53 19.2,22.39 19.02,22.74"/>
			<polygon fill="#FFFFFF" points="19.02,22.74 19.13,22.4 19.29,22.46 19.02,22.74"/>
			<polygon fill="#FFFFFF" points="21.4,20.77 21.33,20.96 21.43,20.99 21.4,20.77"/>
			<polygon fill="#FFFFFF" points="21.4,20.77 21.46,20.96 21.36,20.99 21.4,20.77"/>
			<polygon fill="#FFFFFF" points="21.59,20.91 21.39,20.91 21.39,21.01 21.59,20.91"/>
			<polygon fill="#FFFFFF" points="21.59,20.91 21.42,21.03 21.37,20.95 21.59,20.91"/>
			<polygon fill="#FFFFFF" points="21.2,20.91 21.37,21.03 21.43,20.95 21.2,20.91"/>
			<polygon fill="#FFFFFF" points="21.2,20.91 21.41,20.91 21.41,21.01 21.2,20.91"/>
			<polygon fill="#FFFFFF" points="21.51,21.13 21.45,20.94 21.36,20.97 21.51,21.13"/>
			<polygon fill="#FFFFFF" points="21.51,21.13 21.35,21.01 21.41,20.93 21.51,21.13"/>
			<polygon fill="#FFFFFF" points="21.28,21.13 21.44,21.01 21.38,20.93 21.28,21.13"/>
			<polygon fill="#FFFFFF" points="21.28,21.13 21.34,20.94 21.43,20.97 21.28,21.13"/>
			<polygon fill="#FFFFFF" points="22.48,22.2 22.37,22.53 22.54,22.59 22.48,22.2"/>
			<polygon fill="#FFFFFF" points="22.48,22.2 22.59,22.53 22.42,22.59 22.48,22.2"/>
			<polygon fill="#FFFFFF" points="22.82,22.44 22.46,22.44 22.46,22.62 22.82,22.44"/>
			<polygon fill="#FFFFFF" points="22.82,22.44 22.53,22.65 22.43,22.51 22.82,22.44"/>
			<polygon fill="#FFFFFF" points="22.15,22.44 22.43,22.65 22.53,22.51 22.15,22.44"/>
			<polygon fill="#FFFFFF" points="22.15,22.44 22.5,22.44 22.5,22.62 22.15,22.44"/>
			<polygon fill="#FFFFFF" points="22.69,22.84 22.58,22.5 22.41,22.55 22.69,22.84"/>
			<polygon fill="#FFFFFF" points="22.69,22.84 22.4,22.63 22.51,22.49 22.69,22.84"/>
			<polygon fill="#FFFFFF" points="22.28,22.84 22.56,22.63 22.46,22.49 22.28,22.84"/>
			<polygon fill="#FFFFFF" points="22.28,22.84 22.38,22.5 22.55,22.55 22.28,22.84"/>
			<polygon fill="#FFFFFF" points="22.19,23.25 22.1,23.52 22.23,23.56 22.19,23.25"/>
			<polygon fill="#FFFFFF" points="22.19,23.25 22.27,23.52 22.14,23.56 22.19,23.25"/>
			<polygon fill="#FFFFFF" points="22.45,23.44 22.17,23.44 22.17,23.58 22.45,23.44"/>
			<polygon fill="#FFFFFF" points="22.45,23.44 22.23,23.61 22.14,23.49 22.45,23.44"/>
			<polygon fill="#FFFFFF" points="21.92,23.44 22.15,23.61 22.23,23.49 21.92,23.44"/>
			<polygon fill="#FFFFFF" points="21.92,23.44 22.2,23.44 22.2,23.58 21.92,23.44"/>
			<polygon fill="#FFFFFF" points="22.35,23.76 22.26,23.49 22.13,23.53 22.35,23.76"/>
			<polygon fill="#FFFFFF" points="22.35,23.76 22.12,23.59 22.21,23.48 22.35,23.76"/>
			<polygon fill="#FFFFFF" points="22.02,23.76 22.25,23.59 22.16,23.48 22.02,23.76"/>
			<polygon fill="#FFFFFF" points="22.02,23.76 22.11,23.49 22.24,23.53 22.02,23.76"/>
			<polygon fill="#FFFFFF" points="30.66,15.72 30.53,16.12 30.73,16.19 30.66,15.72"/>
			<polygon fill="#FFFFFF" points="30.66,15.72 30.78,16.12 30.58,16.19 30.66,15.72"/>
			<polygon fill="#FFFFFF" points="31.06,16.02 30.63,16.02 30.63,16.23 31.06,16.02"/>
			<polygon fill="#FFFFFF" points="31.06,16.02 30.71,16.26 30.59,16.09 31.06,16.02"/>
			<polygon fill="#FFFFFF" points="30.25,16.02 30.6,16.26 30.72,16.09 30.25,16.02"/>
			<polygon fill="#FFFFFF" points="30.25,16.02 30.68,16.02 30.68,16.23 30.25,16.02"/>
			<polygon fill="#FFFFFF" points="30.9,16.49 30.77,16.09 30.57,16.15 30.9,16.49"/>
			<polygon fill="#FFFFFF" points="30.9,16.49 30.56,16.24 30.69,16.07 30.9,16.49"/>
			<polygon fill="#FFFFFF" points="30.41,16.49 30.75,16.24 30.62,16.07 30.41,16.49"/>
			<polygon fill="#FFFFFF" points="30.41,16.49 30.54,16.09 30.74,16.15 30.41,16.49"/>
			<polygon fill="#FFFFFF" points="34.5,22.24 34.37,22.64 34.57,22.7 34.5,22.24"/>
			<polygon fill="#FFFFFF" points="34.5,22.24 34.63,22.64 34.43,22.7 34.5,22.24"/>
			<polygon fill="#FFFFFF" points="34.9,22.53 34.48,22.53 34.48,22.74 34.9,22.53"/>
			<polygon fill="#FFFFFF" points="34.9,22.53 34.56,22.77 34.44,22.61 34.9,22.53"/>
			<polygon fill="#FFFFFF" points="34.1,22.53 34.44,22.77 34.56,22.61 34.1,22.53"/>
			<polygon fill="#FFFFFF" points="34.1,22.53 34.52,22.53 34.52,22.74 34.1,22.53"/>
			<polygon fill="#FFFFFF" points="34.75,23 34.62,22.6 34.42,22.66 34.75,23"/>
			<polygon fill="#FFFFFF" points="34.75,23 34.41,22.75 34.53,22.58 34.75,23"/>
			<polygon fill="#FFFFFF" points="34.25,23 34.59,22.75 34.47,22.58 34.25,23"/>
			<polygon fill="#FFFFFF" points="34.25,23 34.38,22.6 34.58,22.66 34.25,23"/>
			<polygon fill="#FFFFFF" points="35.87,22.47 35.78,22.74 35.91,22.78 35.87,22.47"/>
			<polygon fill="#FFFFFF" points="35.87,22.47 35.95,22.74 35.82,22.78 35.87,22.47"/>
			<polygon fill="#FFFFFF" points="36.13,22.66 35.85,22.66 35.85,22.8 36.13,22.66"/>
			<polygon fill="#FFFFFF" points="36.13,22.66 35.91,22.83 35.82,22.72 36.13,22.66"/>
			<polygon fill="#FFFFFF" points="35.6,22.66 35.83,22.83 35.91,22.72 35.6,22.66"/>
			<polygon fill="#FFFFFF" points="35.6,22.66 35.88,22.66 35.88,22.8 35.6,22.66"/>
			<polygon fill="#FFFFFF" points="36.03,22.98 35.95,22.71 35.81,22.75 36.03,22.98"/>
			<polygon fill="#FFFFFF" points="36.03,22.98 35.81,22.81 35.89,22.7 36.03,22.98"/>
			<polygon fill="#FFFFFF" points="35.7,22.98 35.93,22.81 35.85,22.7 35.7,22.98"/>
			<polygon fill="#FFFFFF" points="35.7,22.98 35.79,22.71 35.92,22.75 35.7,22.98"/>
			<polygon fill="#FFFFFF" points="34.9,23.18 34.79,23.51 34.96,23.57 34.9,23.18"/>
			<polygon fill="#FFFFFF" points="34.9,23.18 35.01,23.51 34.84,23.57 34.9,23.18"/>
			<polygon fill="#FFFFFF" points="35.24,23.42 34.88,23.42 34.88,23.59 35.24,23.42"/>
			<polygon fill="#FFFFFF" points="35.24,23.42 34.95,23.63 34.85,23.48 35.24,23.42"/>
			<polygon fill="#FFFFFF" points="34.57,23.42 34.85,23.63 34.96,23.48 34.57,23.42"/>
			<polygon fill="#FFFFFF" points="34.57,23.42 34.92,23.42 34.92,23.59 34.57,23.42"/>
			<polygon fill="#FFFFFF" points="35.11,23.81 35,23.48 34.83,23.53 35.11,23.81"/>
			<polygon fill="#FFFFFF" points="35.11,23.81 34.83,23.61 34.93,23.46 35.11,23.81"/>
			<polygon fill="#FFFFFF" points="34.7,23.81 34.98,23.61 34.88,23.46 34.7,23.81"/>
			<polygon fill="#FFFFFF" points="34.7,23.81 34.81,23.48 34.97,23.53 34.7,23.81"/>
			<polygon fill="#FFFFFF" points="32.53,25.24 32.42,25.57 32.59,25.63 32.53,25.24"/>
			<polygon fill="#FFFFFF" points="32.53,25.24 32.64,25.57 32.47,25.63 32.53,25.24"/>
			<polygon fill="#FFFFFF" points="32.87,25.48 32.51,25.48 32.51,25.66 32.87,25.48"/>
			<polygon fill="#FFFFFF" points="32.87,25.48 32.58,25.69 32.48,25.55 32.87,25.48"/>
			<polygon fill="#FFFFFF" points="32.2,25.48 32.48,25.69 32.58,25.55 32.2,25.48"/>
			<polygon fill="#FFFFFF" points="32.2,25.48 32.55,25.48 32.55,25.66 32.2,25.48"/>
			<polygon fill="#FFFFFF" points="32.74,25.88 32.63,25.54 32.46,25.6 32.74,25.88"/>
			<polygon fill="#FFFFFF" points="32.74,25.88 32.45,25.67 32.56,25.53 32.74,25.88"/>
			<polygon fill="#FFFFFF" points="32.33,25.88 32.61,25.67 32.51,25.53 32.33,25.88"/>
			<polygon fill="#FFFFFF" points="32.33,25.88 32.43,25.54 32.6,25.6 32.33,25.88"/>
			<polygon fill="#FFFFFF" points="32.52,26.3 32.43,26.57 32.56,26.61 32.52,26.3"/>
			<polygon fill="#FFFFFF" points="32.52,26.3 32.6,26.57 32.47,26.61 32.52,26.3"/>
			<polygon fill="#FFFFFF" points="32.78,26.5 32.5,26.5 32.5,26.64 32.78,26.5"/>
			<polygon fill="#FFFFFF" points="32.78,26.5 32.56,26.66 32.47,26.55 32.78,26.5"/>
			<polygon fill="#FFFFFF" points="32.25,26.5 32.48,26.66 32.56,26.55 32.25,26.5"/>
			<polygon fill="#FFFFFF" points="32.25,26.5 32.53,26.5 32.53,26.64 32.25,26.5"/>
			<polygon fill="#FFFFFF" points="32.68,26.81 32.6,26.54 32.46,26.59 32.68,26.81"/>
			<polygon fill="#FFFFFF" points="32.68,26.81 32.46,26.65 32.54,26.53 32.68,26.81"/>
			<polygon fill="#FFFFFF" points="32.35,26.81 32.58,26.65 32.5,26.53 32.35,26.81"/>
			<polygon fill="#FFFFFF" points="32.35,26.81 32.44,26.54 32.57,26.59 32.35,26.81"/>
			<polygon fill="#FFFFFF" points="33.51,24.53 33.42,24.8 33.56,24.85 33.51,24.53"/>
			<polygon fill="#FFFFFF" points="33.51,24.53 33.6,24.8 33.46,24.85 33.51,24.53"/>
			<polygon fill="#FFFFFF" points="33.78,24.73 33.49,24.73 33.49,24.87 33.78,24.73"/>
			<polygon fill="#FFFFFF" points="33.78,24.73 33.55,24.89 33.47,24.78 33.78,24.73"/>
			<polygon fill="#FFFFFF" points="33.24,24.73 33.47,24.89 33.55,24.78 33.24,24.73"/>
			<polygon fill="#FFFFFF" points="33.24,24.73 33.52,24.73 33.52,24.87 33.24,24.73"/>
			<polygon fill="#FFFFFF" points="33.67,25.04 33.59,24.77 33.45,24.82 33.67,25.04"/>
			<polygon fill="#FFFFFF" points="33.67,25.04 33.45,24.88 33.53,24.76 33.67,25.04"/>
			<polygon fill="#FFFFFF" points="33.34,25.04 33.57,24.88 33.49,24.76 33.34,25.04"/>
			<polygon fill="#FFFFFF" points="33.34,25.04 33.43,24.77 33.56,24.82 33.34,25.04"/>
			<polygon fill="#FFFFFF" points="34.3,23.97 34.19,24.3 34.36,24.36 34.3,23.97"/>
			<polygon fill="#FFFFFF" points="34.3,23.97 34.41,24.3 34.24,24.36 34.3,23.97"/>
			<polygon fill="#FFFFFF" points="34.63,24.21 34.28,24.21 34.28,24.39 34.63,24.21"/>
			<polygon fill="#FFFFFF" points="34.63,24.21 34.35,24.42 34.25,24.28 34.63,24.21"/>
			<polygon fill="#FFFFFF" points="33.97,24.21 34.25,24.42 34.35,24.28 33.97,24.21"/>
			<polygon fill="#FFFFFF" points="33.97,24.21 34.32,24.21 34.32,24.39 33.97,24.21"/>
			<polygon fill="#FFFFFF" points="34.51,24.6 34.4,24.27 34.23,24.32 34.51,24.6"/>
			<polygon fill="#FFFFFF" points="34.51,24.6 34.22,24.4 34.33,24.25 34.51,24.6"/>
			<polygon fill="#FFFFFF" points="34.09,24.6 34.38,24.4 34.27,24.25 34.09,24.6"/>
			<polygon fill="#FFFFFF" points="34.09,24.6 34.2,24.27 34.37,24.32 34.09,24.6"/>
			<polygon fill="#FFFFFF" points="32.49,24.34 32.4,24.61 32.54,24.66 32.49,24.34"/>
			<polygon fill="#FFFFFF" points="32.49,24.34 32.58,24.61 32.44,24.66 32.49,24.34"/>
			<polygon fill="#FFFFFF" points="32.76,24.54 32.48,24.54 32.48,24.68 32.76,24.54"/>
			<polygon fill="#FFFFFF" points="32.76,24.54 32.53,24.71 32.45,24.59 32.76,24.54"/>
			<polygon fill="#FFFFFF" points="32.22,24.54 32.45,24.71 32.53,24.59 32.22,24.54"/>
			<polygon fill="#FFFFFF" points="32.22,24.54 32.51,24.54 32.51,24.68 32.22,24.54"/>
			<polygon fill="#FFFFFF" points="32.66,24.85 32.57,24.59 32.44,24.63 32.66,24.85"/>
			<polygon fill="#FFFFFF" points="32.66,24.85 32.43,24.69 32.51,24.58 32.66,24.85"/>
			<polygon fill="#FFFFFF" points="32.33,24.85 32.55,24.69 32.47,24.58 32.33,24.85"/>
			<polygon fill="#FFFFFF" points="32.33,24.85 32.41,24.59 32.55,24.63 32.33,24.85"/>
			<polygon fill="#FFFFFF" points="23.85,19.25 23.74,19.58 23.91,19.64 23.85,19.25"/>
			<polygon fill="#FFFFFF" points="23.85,19.25 23.96,19.58 23.79,19.64 23.85,19.25"/>
			<polygon fill="#FFFFFF" points="24.18,19.49 23.83,19.49 23.83,19.67 24.18,19.49"/>
			<polygon fill="#FFFFFF" points="24.18,19.49 23.9,19.7 23.79,19.56 24.18,19.49"/>
			<polygon fill="#FFFFFF" points="23.51,19.49 23.8,19.7 23.9,19.56 23.51,19.49"/>
			<polygon fill="#FFFFFF" points="23.51,19.49 23.87,19.49 23.87,19.67 23.51,19.49"/>
			<polygon fill="#FFFFFF" points="24.05,19.89 23.95,19.55 23.78,19.61 24.05,19.89"/>
			<polygon fill="#FFFFFF" points="24.05,19.89 23.77,19.68 23.87,19.54 24.05,19.89"/>
			<polygon fill="#FFFFFF" points="23.64,19.89 23.93,19.68 23.82,19.54 23.64,19.89"/>
			<polygon fill="#FFFFFF" points="23.64,19.89 23.75,19.55 23.92,19.61 23.64,19.89"/>
			<polygon fill="#FFFFFF" points="30.28,18.42 30.19,18.69 30.33,18.73 30.28,18.42"/>
			<polygon fill="#FFFFFF" points="30.28,18.42 30.37,18.69 30.23,18.73 30.28,18.42"/>
			<polygon fill="#FFFFFF" points="30.55,18.62 30.27,18.62 30.27,18.76 30.55,18.62"/>
			<polygon fill="#FFFFFF" points="30.55,18.62 30.32,18.78 30.24,18.67 30.55,18.62"/>
			<polygon fill="#FFFFFF" points="30.01,18.62 30.24,18.78 30.32,18.67 30.01,18.62"/>
			<polygon fill="#FFFFFF" points="30.01,18.62 30.29,18.62 30.29,18.76 30.01,18.62"/>
			<polygon fill="#FFFFFF" points="30.44,18.93 30.36,18.67 30.23,18.71 30.44,18.93"/>
			<polygon fill="#FFFFFF" points="30.44,18.93 30.22,18.77 30.3,18.65 30.44,18.93"/>
			<polygon fill="#FFFFFF" points="30.12,18.93 30.34,18.77 30.26,18.65 30.12,18.93"/>
			<polygon fill="#FFFFFF" points="30.12,18.93 30.2,18.67 30.34,18.71 30.12,18.93"/>
			<polygon fill="#FFFFFF" points="27.6,23.2 27.47,23.6 27.67,23.67 27.6,23.2"/>
			<polygon fill="#FFFFFF" points="27.6,23.2 27.73,23.6 27.53,23.67 27.6,23.2"/>
			<polygon fill="#FFFFFF" points="28,23.49 27.58,23.49 27.58,23.7 28,23.49"/>
			<polygon fill="#FFFFFF" points="28,23.49 27.66,23.74 27.54,23.57 28,23.49"/>
			<polygon fill="#FFFFFF" points="27.2,23.49 27.54,23.74 27.66,23.57 27.2,23.49"/>
			<polygon fill="#FFFFFF" points="27.2,23.49 27.62,23.49 27.62,23.7 27.2,23.49"/>
			<polygon fill="#FFFFFF" points="27.85,23.96 27.72,23.56 27.52,23.63 27.85,23.96"/>
			<polygon fill="#FFFFFF" points="27.85,23.96 27.51,23.72 27.63,23.54 27.85,23.96"/>
			<polygon fill="#FFFFFF" points="27.35,23.96 27.69,23.72 27.57,23.54 27.35,23.96"/>
			<polygon fill="#FFFFFF" points="27.35,23.96 27.48,23.56 27.68,23.63 27.35,23.96"/>
			<polygon fill="#FFFFFF" points="28.74,21.31 28.63,21.65 28.8,21.7 28.74,21.31"/>
			<polygon fill="#FFFFFF" points="28.74,21.31 28.85,21.65 28.68,21.7 28.74,21.31"/>
			<polygon fill="#FFFFFF" points="29.07,21.56 28.72,21.56 28.72,21.73 29.07,21.56"/>
			<polygon fill="#FFFFFF" points="29.07,21.56 28.79,21.76 28.68,21.62 29.07,21.56"/>
			<polygon fill="#FFFFFF" points="28.41,21.56 28.69,21.76 28.79,21.62 28.41,21.56"/>
			<polygon fill="#FFFFFF" points="28.41,21.56 28.76,21.56 28.76,21.73 28.41,21.56"/>
			<polygon fill="#FFFFFF" points="28.95,21.95 28.84,21.62 28.67,21.67 28.95,21.95"/>
			<polygon fill="#FFFFFF" points="28.95,21.95 28.66,21.74 28.76,21.6 28.95,21.95"/>
			<polygon fill="#FFFFFF" points="28.53,21.95 28.82,21.74 28.71,21.6 28.53,21.95"/>
			<polygon fill="#FFFFFF" points="28.53,21.95 28.64,21.62 28.81,21.67 28.53,21.95"/>
			<polygon fill="#FFFFFF" points="27.6,20.43 27.49,20.76 27.66,20.82 27.6,20.43"/>
			<polygon fill="#FFFFFF" points="27.6,20.43 27.71,20.76 27.54,20.82 27.6,20.43"/>
			<polygon fill="#FFFFFF" points="27.93,20.67 27.58,20.67 27.58,20.85 27.93,20.67"/>
			<polygon fill="#FFFFFF" points="27.93,20.67 27.65,20.88 27.55,20.74 27.93,20.67"/>
			<polygon fill="#FFFFFF" points="27.27,20.67 27.55,20.88 27.65,20.74 27.27,20.67"/>
			<polygon fill="#FFFFFF" points="27.27,20.67 27.62,20.67 27.62,20.85 27.27,20.67"/>
			<polygon fill="#FFFFFF" points="27.81,21.07 27.7,20.73 27.53,20.79 27.81,21.07"/>
			<polygon fill="#FFFFFF" points="27.81,21.07 27.52,20.86 27.63,20.72 27.81,21.07"/>
			<polygon fill="#FFFFFF" points="27.39,21.07 27.68,20.86 27.57,20.72 27.39,21.07"/>
			<polygon fill="#FFFFFF" points="27.39,21.07 27.5,20.73 27.67,20.79 27.39,21.07"/>
			<polygon fill="#FFFFFF" points="26.61,21.38 26.52,21.65 26.66,21.7 26.61,21.38"/>
			<polygon fill="#FFFFFF" points="26.61,21.38 26.7,21.65 26.56,21.7 26.61,21.38"/>
			<polygon fill="#FFFFFF" points="26.88,21.58 26.59,21.58 26.59,21.72 26.88,21.58"/>
			<polygon fill="#FFFFFF" points="26.88,21.58 26.65,21.74 26.56,21.63 26.88,21.58"/>
			<polygon fill="#FFFFFF" points="26.34,21.58 26.57,21.74 26.65,21.63 26.34,21.58"/>
			<polygon fill="#FFFFFF" points="26.34,21.58 26.62,21.58 26.62,21.72 26.34,21.58"/>
			<polygon fill="#FFFFFF" points="26.77,21.89 26.69,21.63 26.55,21.67 26.77,21.89"/>
			<polygon fill="#FFFFFF" points="26.77,21.89 26.55,21.73 26.63,21.61 26.77,21.89"/>
			<polygon fill="#FFFFFF" points="26.44,21.89 26.67,21.73 26.59,21.61 26.44,21.89"/>
			<polygon fill="#FFFFFF" points="26.44,21.89 26.53,21.63 26.66,21.67 26.44,21.89"/>
			<polygon fill="#FFFFFF" points="27.1,22.15 27.04,22.34 27.14,22.37 27.1,22.15"/>
			<polygon fill="#FFFFFF" points="27.1,22.15 27.17,22.34 27.07,22.37 27.1,22.15"/>
			<polygon fill="#FFFFFF" points="27.29,22.29 27.09,22.29 27.09,22.39 27.29,22.29"/>
			<polygon fill="#FFFFFF" points="27.29,22.29 27.13,22.4 27.07,22.32 27.29,22.29"/>
			<polygon fill="#FFFFFF" points="26.91,22.29 27.08,22.4 27.13,22.32 26.91,22.29"/>
			<polygon fill="#FFFFFF" points="26.91,22.29 27.11,22.29 27.11,22.39 26.91,22.29"/>
			<polygon fill="#FFFFFF" points="27.22,22.51 27.16,22.32 27.06,22.35 27.22,22.51"/>
			<polygon fill="#FFFFFF" points="27.22,22.51 27.06,22.39 27.12,22.31 27.22,22.51"/>
			<polygon fill="#FFFFFF" points="26.99,22.51 27.15,22.39 27.09,22.31 26.99,22.51"/>
			<polygon fill="#FFFFFF" points="26.99,22.51 27.05,22.32 27.14,22.35 26.99,22.51"/>
			<polygon fill="#FFFFFF" points="30.55,25.48 30.44,25.82 30.61,25.87 30.55,25.48"/>
			<polygon fill="#FFFFFF" points="30.55,25.48 30.66,25.82 30.49,25.87 30.55,25.48"/>
			<polygon fill="#FFFFFF" points="30.88,25.72 30.53,25.72 30.53,25.9 30.88,25.72"/>
			<polygon fill="#FFFFFF" points="30.88,25.72 30.6,25.93 30.49,25.79 30.88,25.72"/>
			<polygon fill="#FFFFFF" points="30.21,25.72 30.5,25.93 30.6,25.79 30.21,25.72"/>
			<polygon fill="#FFFFFF" points="30.21,25.72 30.57,25.72 30.57,25.9 30.21,25.72"/>
			<polygon fill="#FFFFFF" points="30.75,26.12 30.65,25.78 30.48,25.84 30.75,26.12"/>
			<polygon fill="#FFFFFF" points="30.75,26.12 30.47,25.91 30.57,25.77 30.75,26.12"/>
			<polygon fill="#FFFFFF" points="30.34,26.12 30.63,25.91 30.52,25.77 30.34,26.12"/>
			<polygon fill="#FFFFFF" points="30.34,26.12 30.45,25.78 30.62,25.84 30.34,26.12"/>
			<polygon fill="#FFFFFF" points="31.39,24.68 31.3,24.95 31.44,24.99 31.39,24.68"/>
			<polygon fill="#FFFFFF" points="31.39,24.68 31.48,24.95 31.35,24.99 31.39,24.68"/>
			<polygon fill="#FFFFFF" points="31.66,24.87 31.38,24.87 31.38,25.02 31.66,24.87"/>
			<polygon fill="#FFFFFF" points="31.66,24.87 31.43,25.04 31.35,24.93 31.66,24.87"/>
			<polygon fill="#FFFFFF" points="31.12,24.87 31.35,25.04 31.44,24.93 31.12,24.87"/>
			<polygon fill="#FFFFFF" points="31.12,24.87 31.41,24.87 31.41,25.02 31.12,24.87"/>
			<polygon fill="#FFFFFF" points="31.56,25.19 31.47,24.92 31.34,24.97 31.56,25.19"/>
			<polygon fill="#FFFFFF" points="31.56,25.19 31.33,25.03 31.41,24.91 31.56,25.19"/>
			<polygon fill="#FFFFFF" points="31.23,25.19 31.45,25.03 31.37,24.91 31.23,25.19"/>
			<polygon fill="#FFFFFF" points="31.23,25.19 31.31,24.92 31.45,24.97 31.23,25.19"/>
			<polygon fill="#FFFFFF" points="29.77,24.44 29.68,24.71 29.82,24.75 29.77,24.44"/>
			<polygon fill="#FFFFFF" points="29.77,24.44 29.86,24.71 29.72,24.75 29.77,24.44"/>
			<polygon fill="#FFFFFF" points="30.04,24.64 29.76,24.64 29.76,24.77 30.04,24.64"/>
			<polygon fill="#FFFFFF" points="30.04,24.64 29.81,24.8 29.73,24.68 30.04,24.64"/>
			<polygon fill="#FFFFFF" points="29.5,24.64 29.73,24.8 29.81,24.68 29.5,24.64"/>
			<polygon fill="#FFFFFF" points="29.5,24.64 29.78,24.64 29.78,24.77 29.5,24.64"/>
			<polygon fill="#FFFFFF" points="29.93,24.95 29.85,24.68 29.71,24.73 29.93,24.95"/>
			<polygon fill="#FFFFFF" points="29.93,24.95 29.71,24.78 29.79,24.67 29.93,24.95"/>
			<polygon fill="#FFFFFF" points="29.61,24.95 29.83,24.78 29.75,24.67 29.61,24.95"/>
			<polygon fill="#FFFFFF" points="29.61,24.95 29.69,24.68 29.82,24.73 29.61,24.95"/>
			<polygon fill="#FFFFFF" points="23.65,24 23.52,24.41 23.72,24.47 23.65,24"/>
			<polygon fill="#FFFFFF" points="23.65,24 23.78,24.41 23.58,24.47 23.65,24"/>
			<polygon fill="#FFFFFF" points="24.05,24.3 23.63,24.3 23.63,24.51 24.05,24.3"/>
			<polygon fill="#FFFFFF" points="24.05,24.3 23.71,24.54 23.58,24.37 24.05,24.3"/>
			<polygon fill="#FFFFFF" points="23.25,24.3 23.59,24.54 23.71,24.37 23.25,24.3"/>
			<polygon fill="#FFFFFF" points="23.25,24.3 23.67,24.3 23.67,24.51 23.25,24.3"/>
			<polygon fill="#FFFFFF" points="23.9,24.77 23.76,24.36 23.56,24.43 23.9,24.77"/>
			<polygon fill="#FFFFFF" points="23.9,24.77 23.55,24.52 23.68,24.35 23.9,24.77"/>
			<polygon fill="#FFFFFF" points="23.4,24.77 23.74,24.52 23.62,24.35 23.4,24.77"/>
			<polygon fill="#FFFFFF" points="23.4,24.77 23.53,24.36 23.73,24.43 23.4,24.77"/>
			<polygon fill="#FFFFFF" points="27.6,26.76 27.56,26.9 27.62,26.92 27.6,26.76"/>
			<polygon fill="#FFFFFF" points="27.6,26.76 27.64,26.9 27.58,26.92 27.6,26.76"/>
			<polygon fill="#FFFFFF" points="27.73,26.86 27.59,26.86 27.59,26.93 27.73,26.86"/>
			<polygon fill="#FFFFFF" points="27.73,26.86 27.62,26.94 27.58,26.89 27.73,26.86"/>
			<polygon fill="#FFFFFF" points="27.47,26.86 27.58,26.94 27.62,26.89 27.47,26.86"/>
			<polygon fill="#FFFFFF" points="27.47,26.86 27.61,26.86 27.61,26.93 27.47,26.86"/>
			<polygon fill="#FFFFFF" points="27.68,27.02 27.64,26.89 27.57,26.91 27.68,27.02"/>
			<polygon fill="#FFFFFF" points="27.68,27.02 27.57,26.94 27.61,26.88 27.68,27.02"/>
			<polygon fill="#FFFFFF" points="27.52,27.02 27.63,26.94 27.59,26.88 27.52,27.02"/>
			<polygon fill="#FFFFFF" points="27.52,27.02 27.56,26.89 27.63,26.91 27.52,27.02"/>
		</g>
	</svg>
</svg>